# xmcd
#
# Track frame offsets:
#	150
#	23370
#	36923
#	50545
#	65298
#	83203
#	94628
#	107848
#	121305
#	136288
#	151823
#	166543
#	184928
#	206433
#	224648
#
# Disc length: 3308 seconds
#
# Revision: 1
# Processed by: cddbd v1.5.2PL0 Copyright (c) Steve Scherf et al.
# Submitted via: audiograbber 1.83.01
#
DISCID=c10cea0f
DTITLE=Various Artist - New Stars in Country - Die Erste
DYEAR=1993
DGENRE=Country
TTITLE0=Rebel Yell - Freedom
TTITLE1=Andy Glandt and Greenhorn - In Amerika
TTITLE2=Kevin Henderson - Endlich daheim
TTITLE3=Tex and Ricki - Little cowboys
TTITLE4=Canada Country Cowboys - Lo siento mi vida
TTITLE5=Kaktus - Why'd you come in here lookin' like that
TTITLE6=Two Of A Kind - Let us never fall apart
TTITLE7=Black Bottom Skiffle Group - Kindereien
TTITLE8=Canada Country Cowboys - Ashes of love
TTITLE9=Tex and Ricki - Hold me tight
TTITLE10=Rising Star - Rising star
TTITLE11=Black Bottom Skiffle Group - Singin' a lullaby
TTITLE12=Desert Moon - Rose of Mexico
TTITLE13=Colorado Five - Der letzte Trucker
TTITLE14=Kevin Henderson - Caught in a corner
EXTD=
EXTT0=
EXTT1=
EXTT2=
EXTT3=
EXTT4=
EXTT5=
EXTT6=
EXTT7=
EXTT8=
EXTT9=
EXTT10=
EXTT11=
EXTT12=
EXTT13=
EXTT14=
PLAYORDER=
